<?xml version="1.0" encoding="UTF-8" standalone="no"?>
<!-- Created with Inkscape (http://www.inkscape.org/) -->

<svg
   xmlns:dc="http://purl.org/dc/elements/1.1/"
   xmlns:cc="http://creativecommons.org/ns#"
   xmlns:rdf="http://www.w3.org/1999/02/22-rdf-syntax-ns#"
   xmlns:svg="http://www.w3.org/2000/svg"
   xmlns="http://www.w3.org/2000/svg"
   xmlns:xlink="http://www.w3.org/1999/xlink"
   xmlns:sodipodi="http://sodipodi.sourceforge.net/DTD/sodipodi-0.dtd"
   xmlns:inkscape="http://www.inkscape.org/namespaces/inkscape"
   sodipodi:docname="hw.svg"
   inkscape:version="0.48.4 r9939"
   sodipodi:version="0.32"
   id="svg2913"
   height="48px"
   width="48px"
   inkscape:output_extension="org.inkscape.output.svg.inkscape"
   version="1.1"
   inkscape:export-filename="D:\src\javaws\OpenNethome\home-items\web-items\src\main\resources\nu\nethome\home\items\web\home\hw.png"
   inkscape:export-xdpi="75"
   inkscape:export-ydpi="75">
  <defs
     id="defs3">
    <inkscape:perspective
       sodipodi:type="inkscape:persp3d"
       inkscape:vp_x="0 : 24 : 1"
       inkscape:vp_y="0 : 1000 : 0"
       inkscape:vp_z="48 : 24 : 1"
       inkscape:persp3d-origin="24 : 16 : 1"
       id="perspective79" />
    <radialGradient
       inkscape:collect="always"
       xlink:href="#linearGradient5060"
       id="radialGradient6719"
       gradientUnits="userSpaceOnUse"
       gradientTransform="matrix(-2.774389,0,0,1.969706,112.7623,-872.8854)"
       cx="605.71429"
       cy="486.64789"
       fx="605.71429"
       fy="486.64789"
       r="117.14286" />
    <linearGradient
       inkscape:collect="always"
       id="linearGradient5060">
      <stop
         style="stop-color:black;stop-opacity:1;"
         offset="0"
         id="stop5062" />
      <stop
         style="stop-color:black;stop-opacity:0;"
         offset="1"
         id="stop5064" />
    </linearGradient>
    <radialGradient
       inkscape:collect="always"
       xlink:href="#linearGradient5060"
       id="radialGradient6717"
       gradientUnits="userSpaceOnUse"
       gradientTransform="matrix(2.774389,0,0,1.969706,-1891.633,-872.8854)"
       cx="605.71429"
       cy="486.64789"
       fx="605.71429"
       fy="486.64789"
       r="117.14286" />
    <linearGradient
       id="linearGradient5048">
      <stop
         style="stop-color:black;stop-opacity:0;"
         offset="0"
         id="stop5050" />
      <stop
         id="stop5056"
         offset="0.5"
         style="stop-color:black;stop-opacity:1;" />
      <stop
         style="stop-color:black;stop-opacity:0;"
         offset="1"
         id="stop5052" />
    </linearGradient>
    <linearGradient
       inkscape:collect="always"
       xlink:href="#linearGradient5048"
       id="linearGradient6715"
       gradientUnits="userSpaceOnUse"
       gradientTransform="matrix(2.774389,0,0,1.969706,-1892.179,-872.8854)"
       x1="302.85715"
       y1="366.64789"
       x2="302.85715"
       y2="609.50507" />
    <linearGradient
       id="linearGradient2555">
      <stop
         id="stop2557"
         offset="0"
         style="stop-color:#ffffff;stop-opacity:1;" />
      <stop
         style="stop-color:#e6e6e6;stop-opacity:1.0000000;"
         offset="0.50000000"
         id="stop2561" />
      <stop
         id="stop2563"
         offset="0.75000000"
         style="stop-color:#ffffff;stop-opacity:1.0000000;" />
      <stop
         style="stop-color:#e1e1e1;stop-opacity:1.0000000;"
         offset="0.84166664"
         id="stop2565" />
      <stop
         id="stop2559"
         offset="1.0000000"
         style="stop-color:#ffffff;stop-opacity:1.0000000;" />
    </linearGradient>
    <linearGradient
       id="linearGradient4274">
      <stop
         style="stop-color:#ffffff;stop-opacity:0.25490198;"
         offset="0.0000000"
         id="stop4276" />
      <stop
         style="stop-color:#ffffff;stop-opacity:1.0000000;"
         offset="1.0000000"
         id="stop4278" />
    </linearGradient>
    <linearGradient
       id="linearGradient4264"
       inkscape:collect="always">
      <stop
         id="stop4266"
         offset="0"
         style="stop-color:#000000;stop-opacity:1;" />
      <stop
         id="stop4268"
         offset="1"
         style="stop-color:#000000;stop-opacity:0;" />
    </linearGradient>
    <linearGradient
       id="linearGradient4254"
       inkscape:collect="always">
      <stop
         id="stop4256"
         offset="0"
         style="stop-color:#ffffff;stop-opacity:1;" />
      <stop
         id="stop4258"
         offset="1"
         style="stop-color:#ffffff;stop-opacity:0;" />
    </linearGradient>
    <linearGradient
       id="linearGradient4244">
      <stop
         id="stop4246"
         offset="0.0000000"
         style="stop-color:#e4e4e4;stop-opacity:1.0000000;" />
      <stop
         id="stop4248"
         offset="1.0000000"
         style="stop-color:#d3d3d3;stop-opacity:1.0000000;" />
    </linearGradient>
    <linearGradient
       id="linearGradient4228">
      <stop
         id="stop4230"
         offset="0.0000000"
         style="stop-color:#bbbbbb;stop-opacity:1.0000000;" />
      <stop
         id="stop4232"
         offset="1.0000000"
         style="stop-color:#9f9f9f;stop-opacity:1.0000000;" />
    </linearGradient>
    <linearGradient
       id="linearGradient4184">
      <stop
         id="stop4186"
         offset="0.0000000"
         style="stop-color:#838383;stop-opacity:1.0000000;" />
      <stop
         id="stop4188"
         offset="1.0000000"
         style="stop-color:#bbbbbb;stop-opacity:0.0000000;" />
    </linearGradient>
    <linearGradient
       gradientUnits="userSpaceOnUse"
       y2="40.943935"
       x2="36.183067"
       y1="28.481176"
       x1="7.6046205"
       id="linearGradient4234"
       xlink:href="#linearGradient4228"
       inkscape:collect="always" />
    <radialGradient
       gradientUnits="userSpaceOnUse"
       gradientTransform="matrix(1.286242,0.781698,-0.710782,1.169552,-2.354348,-4.876862)"
       r="20.935817"
       fy="2.9585190"
       fx="15.571491"
       cy="2.9585190"
       cx="15.571491"
       id="radialGradient4250"
       xlink:href="#linearGradient4244"
       inkscape:collect="always" />
    <linearGradient
       gradientUnits="userSpaceOnUse"
       y2="47.620636"
       x2="44.096100"
       y1="4.4331360"
       x1="12.378357"
       id="linearGradient4260"
       xlink:href="#linearGradient4254"
       inkscape:collect="always" />
    <radialGradient
       gradientUnits="userSpaceOnUse"
       gradientTransform="matrix(1.000000,0.000000,0.000000,0.651032,0.000000,9.455693)"
       r="23.555494"
       fy="27.096155"
       fx="23.201941"
       cy="27.096155"
       cx="23.201941"
       id="radialGradient4270"
       xlink:href="#linearGradient4264"
       inkscape:collect="always" />
    <linearGradient
       gradientUnits="userSpaceOnUse"
       y2="26.357183"
       x2="23.688078"
       y1="11.318835"
       x1="23.688078"
       id="linearGradient4272"
       xlink:href="#linearGradient4274"
       inkscape:collect="always" />
    <linearGradient
       inkscape:collect="always"
       xlink:href="#linearGradient2555"
       id="linearGradient2553"
       x1="33.431175"
       y1="31.964777"
       x2="21.747974"
       y2="11.780679"
       gradientUnits="userSpaceOnUse" />
    <filter
       inkscape:collect="always"
       id="filter3829"
       x="-0.21742609"
       width="1.4348522"
       y="-0.28115442"
       height="1.5623088">
      <feGaussianBlur
         inkscape:collect="always"
         stdDeviation="0.42466033"
         id="feGaussianBlur3831" />
    </filter>
    <linearGradient
       inkscape:collect="always"
       xlink:href="#linearGradient5048"
       id="linearGradient6356"
       gradientUnits="userSpaceOnUse"
       gradientTransform="matrix(2.774389,0,0,1.969706,-1892.179,-872.8854)"
       x1="302.85715"
       y1="366.64789"
       x2="302.85715"
       y2="609.50507" />
    <radialGradient
       inkscape:collect="always"
       xlink:href="#linearGradient5060"
       id="radialGradient6358"
       gradientUnits="userSpaceOnUse"
       gradientTransform="matrix(2.774389,0,0,1.969706,-1891.633,-872.8854)"
       cx="605.71429"
       cy="486.64789"
       fx="605.71429"
       fy="486.64789"
       r="117.14286" />
    <radialGradient
       inkscape:collect="always"
       xlink:href="#linearGradient5060"
       id="radialGradient6360"
       gradientUnits="userSpaceOnUse"
       gradientTransform="matrix(-2.774389,0,0,1.969706,112.7623,-872.8854)"
       cx="605.71429"
       cy="486.64789"
       fx="605.71429"
       fy="486.64789"
       r="117.14286" />
    <linearGradient
       inkscape:collect="always"
       xlink:href="#linearGradient4228"
       id="linearGradient6362"
       gradientUnits="userSpaceOnUse"
       x1="7.6046205"
       y1="28.481176"
       x2="36.183067"
       y2="40.943935" />
    <radialGradient
       inkscape:collect="always"
       xlink:href="#linearGradient4244"
       id="radialGradient6364"
       gradientUnits="userSpaceOnUse"
       gradientTransform="matrix(1.286242,0.781698,-0.710782,1.169552,-2.354348,-4.876862)"
       cx="15.571491"
       cy="2.9585190"
       fx="15.571491"
       fy="2.9585190"
       r="20.935817" />
    <linearGradient
       inkscape:collect="always"
       xlink:href="#linearGradient4274"
       id="linearGradient6366"
       gradientUnits="userSpaceOnUse"
       x1="23.688078"
       y1="11.318835"
       x2="23.688078"
       y2="26.357183" />
    <linearGradient
       inkscape:collect="always"
       xlink:href="#linearGradient4254"
       id="linearGradient6368"
       gradientUnits="userSpaceOnUse"
       x1="12.378357"
       y1="4.4331360"
       x2="44.096100"
       y2="47.620636" />
    <linearGradient
       inkscape:collect="always"
       xlink:href="#linearGradient2555"
       id="linearGradient6370"
       gradientUnits="userSpaceOnUse"
       x1="33.431175"
       y1="31.964777"
       x2="21.747974"
       y2="11.780679" />
  </defs>
  <sodipodi:namedview
     inkscape:window-y="30"
     inkscape:window-x="435"
     inkscape:window-height="1021"
     inkscape:window-width="1323"
     inkscape:document-units="px"
     inkscape:grid-bbox="true"
     showgrid="false"
     inkscape:current-layer="layer2"
     inkscape:cy="23.089296"
     inkscape:cx="21.494618"
     inkscape:zoom="16"
     inkscape:pageshadow="2"
     inkscape:pageopacity="0.0"
     borderopacity="1.0"
     bordercolor="#666666"
     pagecolor="#ffffff"
     id="base"
     inkscape:window-maximized="0" />
  <metadata
     id="metadata4">
    <rdf:RDF>
      <cc:Work
         rdf:about="">
        <dc:format>image/svg+xml</dc:format>
        <dc:type
           rdf:resource="http://purl.org/dc/dcmitype/StillImage" />
        <dc:title></dc:title>
        <dc:creator>
          <cc:Agent>
            <dc:title>Jakub Steiner</dc:title>
          </cc:Agent>
        </dc:creator>
        <dc:subject>
          <rdf:Bag>
            <rdf:li>hdd</rdf:li>
            <rdf:li>hard drive</rdf:li>
            <rdf:li>fixed</rdf:li>
            <rdf:li>media</rdf:li>
            <rdf:li>solid</rdf:li>
          </rdf:Bag>
        </dc:subject>
        <cc:license
           rdf:resource="http://creativecommons.org/licenses/publicdomain/" />
        <dc:identifier />
        <dc:source>http://jimmac.musichall.cz</dc:source>
      </cc:Work>
      <cc:License
         rdf:about="http://creativecommons.org/licenses/publicdomain/">
        <cc:permits
           rdf:resource="http://creativecommons.org/ns#Reproduction" />
        <cc:permits
           rdf:resource="http://creativecommons.org/ns#Distribution" />
        <cc:permits
           rdf:resource="http://creativecommons.org/ns#DerivativeWorks" />
      </cc:License>
    </rdf:RDF>
  </metadata>
  <g
     inkscape:label="pix"
     id="layer2"
     inkscape:groupmode="layer">
    <g
       id="g6329"
       transform="matrix(0.93097565,0,0,0.92887623,1.2417063,2.2451877)">
      <g
         id="g6707"
         transform="matrix(0.0245274,0,0,0.02086758,45.69054,36.1536)">
        <rect
           y="-150.69685"
           x="-1559.2523"
           height="478.35718"
           width="1339.6335"
           id="rect6709"
           style="opacity:0.40206185;color:#000000;fill:url(#linearGradient6356);fill-opacity:1;fill-rule:nonzero;stroke:none;stroke-width:1;marker:none;visibility:visible;display:inline;overflow:visible" />
        <path
           sodipodi:nodetypes="cccc"
           id="path6711"
           d="m -219.61876,-150.68038 c 0,0 0,478.33079 0,478.33079 142.874166,0.90045 345.40022,-107.16966 345.40014,-239.196175 0,-132.026537 -159.436816,-239.134595 -345.40014,-239.134615 z"
           style="opacity:0.40206185;color:#000000;fill:url(#radialGradient6358);fill-opacity:1;fill-rule:nonzero;stroke:none;stroke-width:1;marker:none;visibility:visible;display:inline;overflow:visible"
           inkscape:connector-curvature="0" />
        <path
           style="opacity:0.40206185;color:#000000;fill:url(#radialGradient6360);fill-opacity:1;fill-rule:nonzero;stroke:none;stroke-width:1;marker:none;visibility:visible;display:inline;overflow:visible"
           d="m -1559.2523,-150.68038 c 0,0 0,478.33079 0,478.33079 -142.8742,0.90045 -345.4002,-107.16966 -345.4002,-239.196175 0,-132.026537 159.4368,-239.134595 345.4002,-239.134615 z"
           id="path6713"
           sodipodi:nodetypes="cccc"
           inkscape:connector-curvature="0" />
      </g>
      <path
         style="fill:none;stroke:#535353;stroke-width:2;stroke-linecap:round;stroke-linejoin:round;stroke-miterlimit:4;stroke-opacity:1;stroke-dasharray:none"
         d="m 11.28569,7.9626278 c -0.625,0 -1.031249,0.2901802 -1.281248,0.843753 -10e-7,0 -6.4687505,17.1035572 -6.4687505,17.1035572 0,0 -0.25,0.671559 -0.25,1.78125 0,0 0,9.649968 0,9.649968 0,1.082613 0.6577855,1.625002 1.65625,1.625 l 38.5624985,0 c 0.984853,0 1.59375,-0.71818 1.59375,-1.84375 l 0,-9.649968 c 0,0 0.105963,-0.770423 -0.09375,-1.3125 L 38.28569,8.9626314 C 38.101165,8.4507246 37.648785,7.9745331 37.16069,7.9626278 l -25.875,0 z"
         id="path4196"
         sodipodi:nodetypes="cccsccccccccc"
         inkscape:connector-curvature="0" />
      <path
         style="fill:url(#linearGradient6362);fill-opacity:1;fill-rule:evenodd;stroke:none"
         d="m 3.2735915,26.996812 0.7646021,-0.692215 37.6096894,0.0625 3.462407,0.317298 0,10.438532 c 0,1.125569 -0.607018,1.843331 -1.591871,1.843331 l -38.5829876,0 c -0.9984647,0 -1.6618399,-0.542051 -1.6618399,-1.624664 l 0,-10.344782 z"
         id="path4170"
         sodipodi:nodetypes="ccccccccc"
         inkscape:connector-curvature="0" />
      <path
         style="fill:url(#radialGradient6364);fill-opacity:1;fill-rule:evenodd;stroke:none"
         d="m 3.5490842,25.914404 c -0.7142857,1.464286 -6.156e-4,2.392857 1.0357143,2.392857 0,0 38.9999985,0 38.9999985,0 1.119047,-0.02381 1.845238,-1.011905 1.428571,-2.142858 L 38.299082,8.9537044 C 38.114558,8.4417976 37.64432,7.9656058 37.156225,7.9537008 l -25.857142,0 c -0.625,0 -1.035714,0.3035732 -1.285713,0.857146 0,0 -6.4642858,17.1035572 -6.4642858,17.1035572 z"
         id="path3093"
         sodipodi:nodetypes="csccccccs"
         inkscape:connector-curvature="0" />
      <path
         style="fill:#ffffff;fill-opacity:1;fill-rule:evenodd;stroke:none"
         d="m 44.796162,25.628688 c 0.06352,1.249974 -0.414003,2.31584 -1.322116,2.34375 0,0 -38.1187164,-1e-6 -38.1187163,0 -1.2892319,0 -1.867736,-0.324947 -2.0840507,-0.868056 0.091761,0.944332 0.8258174,1.649306 2.0840507,1.649306 -1e-7,-1e-6 38.1187163,0 38.1187163,0 1.076007,-0.03307 1.752805,-1.424024 1.352164,-2.994791 l -0.03005,-0.130209 z"
         id="path4201"
         sodipodi:nodetypes="cccccccc"
         inkscape:connector-curvature="0" />
      <path
         style="opacity:0.69142857;color:#000000;fill:url(#linearGradient6366);fill-opacity:1;fill-rule:evenodd;stroke:none;stroke-width:2;marker:none;visibility:visible;display:inline;overflow:visible"
         d="m 10.96875,10.15625 c -0.04608,0.200321 -0.1875,0.386797 -0.1875,0.59375 0,0.948605 0.59098,1.789474 1.34375,2.59375 0.240268,-0.154075 0.365117,-0.354408 0.625,-0.5 -0.940309,-0.816004 -1.553396,-1.716582 -1.78125,-2.6875 z m 26.65625,0 c -0.228727,0.969616 -0.842012,1.872426 -1.78125,2.6875 0.274144,0.153582 0.403988,0.36824 0.65625,0.53125 0.757262,-0.806656 1.3125,-1.673044 1.3125,-2.625 0,-0.206953 -0.141594,-0.393429 -0.1875,-0.59375 z m 2.1875,8.4375 c -0.613791,4.040111 -7.298613,7.25 -15.53125,7.25 -8.212254,1e-6 -14.8601499,-3.192786 -15.5,-7.21875 -0.032357,0.197132 -0.125,0.391882 -0.125,0.59375 3e-7,4.317947 6.989104,7.843751 15.625,7.84375 8.635896,0 15.656249,-3.525802 15.65625,-7.84375 0,-0.212924 -0.08905,-0.417356 -0.125,-0.625 z"
         id="path4211"
         inkscape:connector-curvature="0" />
      <path
         sodipodi:type="arc"
         style="color:#000000;fill:#ffffff;fill-opacity:0.45762706;fill-rule:evenodd;stroke:none;stroke-width:2;marker:none;visibility:visible;display:inline;overflow:visible"
         id="path4224"
         sodipodi:cx="7.2036505"
         sodipodi:cy="25.593554"
         sodipodi:rx="1.3700194"
         sodipodi:ry="1.016466"
         d="m 8.5736699,25.593554 c 0,0.561378 -0.6133786,1.016466 -1.3700194,1.016466 -0.7566409,0 -1.3700195,-0.455088 -1.3700195,-1.016466 0,-0.561379 0.6133786,-1.016466 1.3700195,-1.016466 0.7566408,0 1.3700194,0.455087 1.3700194,1.016466 z"
         transform="translate(0.08838843,0.176776)" />
      <path
         transform="translate(33.96705,0.08838804)"
         d="m 8.5736699,25.593554 c 0,0.561378 -0.6133786,1.016466 -1.3700194,1.016466 -0.7566409,0 -1.3700195,-0.455088 -1.3700195,-1.016466 0,-0.561379 0.6133786,-1.016466 1.3700195,-1.016466 0.7566408,0 1.3700194,0.455087 1.3700194,1.016466 z"
         sodipodi:ry="1.016466"
         sodipodi:rx="1.3700194"
         sodipodi:cy="25.593554"
         sodipodi:cx="7.2036505"
         id="path4226"
         style="color:#000000;fill:#ffffff;fill-opacity:0.45762706;fill-rule:evenodd;stroke:none;stroke-width:2;marker:none;visibility:visible;display:inline;overflow:visible"
         sodipodi:type="arc" />
      <path
         sodipodi:nodetypes="cccsccccccccc"
         id="path4252"
         d="m 11.642515,8.4157227 c -0.601692,0 -0.992791,0.2793586 -1.233466,0.8122873 -10e-7,0 -6.4150149,16.590722 -6.4150149,16.590722 0,0 -0.2406768,0.646515 -0.2406768,1.714823 0,0 0,9.290096 0,9.290096 0,1.35474 0.4440561,1.626899 1.5944841,1.626899 l 37.6869046,0 c 1.323126,0 1.534316,-0.316397 1.534316,-1.837492 l 0,-9.290096 c 0,0 0.10201,-0.741691 -0.09025,-1.263553 L 37.885616,9.2534336 C 37.707973,8.7606171 37.334964,8.427184 36.865071,8.4157227 l -25.222556,0 z"
         style="fill:none;stroke:url(#linearGradient6368);stroke-width:1.00000024;stroke-linecap:round;stroke-linejoin:round;stroke-miterlimit:4;stroke-opacity:1;stroke-dasharray:none"
         inkscape:connector-curvature="0" />
      <path
         id="path4282"
         d="m 40.5,31.429166 0,5.020935"
         style="fill:none;stroke:#ffffff;stroke-width:1.00000048px;stroke-linecap:square;stroke-linejoin:miter;stroke-opacity:0.42372885"
         inkscape:connector-curvature="0" />
      <path
         style="fill:none;stroke:#ffffff;stroke-width:1.00000048px;stroke-linecap:square;stroke-linejoin:miter;stroke-opacity:0.42372885"
         d="m 38.5,31.488943 0,5.020935"
         id="path4284"
         inkscape:connector-curvature="0" />
      <path
         id="path4286"
         d="m 36.5,31.488943 0,5.020935"
         style="fill:none;stroke:#ffffff;stroke-width:1.00000048px;stroke-linecap:square;stroke-linejoin:miter;stroke-opacity:0.42372885"
         inkscape:connector-curvature="0" />
      <path
         style="fill:none;stroke:#ffffff;stroke-width:1.00000048px;stroke-linecap:square;stroke-linejoin:miter;stroke-opacity:0.42372885"
         d="m 34.5,31.488943 0,5.020935"
         id="path4288"
         inkscape:connector-curvature="0" />
      <path
         id="path4290"
         d="m 32.5,31.488943 0,5.020935"
         style="fill:none;stroke:#ffffff;stroke-width:1.00000048px;stroke-linecap:square;stroke-linejoin:miter;stroke-opacity:0.42372885"
         inkscape:connector-curvature="0" />
      <path
         style="fill:none;stroke:#ffffff;stroke-width:1.00000048px;stroke-linecap:square;stroke-linejoin:miter;stroke-opacity:0.42372885"
         d="m 30.5,31.488943 0,5.020935"
         id="path4292"
         inkscape:connector-curvature="0" />
      <path
         style="opacity:0.09714284;fill:none;stroke:#000000;stroke-width:1.00000048px;stroke-linecap:square;stroke-linejoin:miter;stroke-opacity:1"
         d="M 39.5,31.479065 39.5,36.5"
         id="path4294"
         inkscape:connector-curvature="0" />
      <path
         id="path4296"
         d="m 37.5,31.538842 0,5.020935"
         style="opacity:0.09714284;fill:none;stroke:#000000;stroke-width:1.00000048px;stroke-linecap:square;stroke-linejoin:miter;stroke-opacity:1"
         inkscape:connector-curvature="0" />
      <path
         style="opacity:0.09714284;fill:none;stroke:#000000;stroke-width:1.00000048px;stroke-linecap:square;stroke-linejoin:miter;stroke-opacity:1"
         d="m 35.5,31.538842 0,5.020935"
         id="path4298"
         inkscape:connector-curvature="0" />
      <path
         id="path4300"
         d="m 33.5,31.538842 0,5.020935"
         style="opacity:0.09714284;fill:none;stroke:#000000;stroke-width:1.00000048px;stroke-linecap:square;stroke-linejoin:miter;stroke-opacity:1"
         inkscape:connector-curvature="0" />
      <path
         style="opacity:0.09714284;fill:none;stroke:#000000;stroke-width:1.00000048px;stroke-linecap:square;stroke-linejoin:miter;stroke-opacity:1"
         d="m 31.5,31.538842 0,5.020935"
         id="path4302"
         inkscape:connector-curvature="0" />
      <path
         transform="matrix(1.037815,0,0,1.060747,-1.632878,-2.094626)"
         d="m 39.875,19.5625 c 0,3.693404 -6.659764,6.6875 -14.875,6.6875 -8.215236,0 -14.875,-2.994096 -14.875,-6.6875 0,-3.693404 6.659764,-6.6875 14.875,-6.6875 8.215236,0 14.875,2.994096 14.875,6.6875 z"
         sodipodi:ry="6.6875"
         sodipodi:rx="14.875"
         sodipodi:cy="19.5625"
         sodipodi:cx="25"
         id="path2545"
         style="opacity:0.20571427;color:#000000;fill:url(#linearGradient6370);fill-opacity:1;fill-rule:evenodd;stroke:none;stroke-width:0.93365198;marker:none;visibility:visible;display:inline;overflow:visible"
         sodipodi:type="arc" />
      <rect
         y="30.375"
         x="6.5625"
         height="3.625"
         width="4.6875"
         id="rect3055"
         style="opacity:0.9557522;fill:#ff0000;fill-opacity:1;stroke:#ff0000;stroke-width:0.69999999;stroke-miterlimit:4;stroke-opacity:1;stroke-dasharray:none;filter:url(#filter3829)" />
    </g>
  </g>
</svg>
